<svg data-name="Layer 1" xmlns="http://www.w3.org/2000/svg" viewBox="0 0 931.99 267"><title>Artboard 1</title><path d="M55.63 85.29l3.71-6.67L220.28 241l-3 3.71h-3.68zm174.29 159.46H81.58V267h148.34z" fill="#ff4081"/><path d="M255.13 183.19l-3.71 6.67L91.23 26l2.23-3.71h4.44zm-37.83 61.56L229.92 267l81.58-133.5h-26z" fill="#9c27b0"/><path d="M229.92 22.25H81.58V0h148.34zm-12.61 0h-4.45L54.88 181l3.71 6.67L219.53 26z" fill="#00bcd4"/><path d="M93.45 22.25L18.54 145.37 0 133.5 81.58 0zm126.08 3l-2.22-3H204.7L63.78 71.2l-5.93 9.64z" fill="#ffc107"/><path d="M94.19 244.75L81.58 267 0 133.5h26zm2.23-59.33V22.25h-3L89 29.67v155.75H57.85l4.45 7.42H89v43.76l5.19 8.16h2.23v-51.93H249.2l4.45-7.42z" fill="#ff5722"/><path d="M249.94 75.65L92.71 242.53l1.48 2.22h6.68l152-161.68-40 161.68h5.19l4.45-7.42 37.07-146.85zm35.6 57.85L217.31 22.25 229.92 0l81.58 133.5z" fill="#03a9f4"/><text transform="translate(348.67 178.13)" font-size="120" font-family="Montserrat-Bold,Montserrat" font-weight="700">REACTQL</text></svg>